<mxfile host="app.diagrams.net" modified="2024-03-22T15:06:11.743Z" agent="Mozilla/5.0 (Macintosh; Intel Mac OS X 10_15_7) AppleWebKit/537.36 (KHTML, like Gecko) Chrome/123.0.0.0 Safari/537.36" etag="e_0OQw2KhglVbvR_dDpZ" version="24.0.7" type="device">
  <diagram name="Page-1" id="2gDWj9k9RF6HO6bdDUmu">
    <mxGraphModel dx="713" dy="632" grid="1" gridSize="10" guides="1" tooltips="1" connect="1" arrows="1" fold="1" page="1" pageScale="1" pageWidth="850" pageHeight="1100" math="0" shadow="0">
      <root>
        <mxCell id="0" />
        <mxCell id="1" parent="0" />
        <mxCell id="jFAVg3Ne3R_NHwahTMIC-1" value="" style="rounded=0;whiteSpace=wrap;html=1;fillColor=#000000;" parent="1" vertex="1">
          <mxGeometry width="720" height="420" as="geometry" />
        </mxCell>
        <mxCell id="jFAVg3Ne3R_NHwahTMIC-2" value="" style="rounded=0;whiteSpace=wrap;html=1;fillColor=#CCCCCC;" parent="1" vertex="1">
          <mxGeometry width="130" height="420" as="geometry" />
        </mxCell>
      </root>
    </mxGraphModel>
  </diagram>
</mxfile>
